# xmcd CD database file
#
# Track frame offsets:
#	150
#	22305
#	43890
#	64011
#	83002
#	102127
#	114009
#	133013
#	148663
#	171370
#	193276
#	215014
#	234539
#
# Disc length: 3471 seconds
#
# Revision: 2
# Processed by: cddbd v1.5.2PL0 Copyright (c) Steve Scherf et al.
# Submitted via: CDex 1.70beta2
#
DISCID=bf0d8d0d
DTITLE=Titilayo Adedokun - A Child Again (2009)
DYEAR=2009
DGENRE=Jazz
TTITLE0=Too Darn Hot
TTITLE1=If You Could See Me Now
TTITLE2=Emi Orun
TTITLE3=A Child Again
TTITLE4=Ac-cent-tchu-ate The Positive
TTITLE5=The Gypsy
TTITLE6=I Wish You Love
TTITLE7=They All Laughed
TTITLE8=The Road Is Long
TTITLE9=Modupe
TTITLE10=Little Things Mean a Lot
TTITLE11=Gimma Joy Back
TTITLE12=It´s Now or Never - O Sole Mio
EXTD=YEAR: 2009
EXTT0=
EXTT1=
EXTT2=
EXTT3=
EXTT4=
EXTT5=
EXTT6=
EXTT7=
EXTT8=
EXTT9=
EXTT10=
EXTT11=
EXTT12=
PLAYORDER=
